<svg id="Layer_1" data-name="Layer 1" xmlns="http://www.w3.org/2000/svg" viewBox="0 0 635.47 161.21"><defs><style>.cls-1{fill:#1d1d1b;}.cls-2{fill:#fbba00;}.cls-3{fill:#e30613;}</style></defs><path class="cls-1" d="M140.31,118.73a33.81,33.81,0,0,1-14.87-3.11,24.92,24.92,0,0,1-10.07-8.49,22.47,22.47,0,0,1,0-24.49,24.89,24.89,0,0,1,10.07-8.51A33.81,33.81,0,0,1,140.31,71a31.78,31.78,0,0,1,11.58,2.39,26.54,26.54,0,0,1,9.89,6.46l-7.16,7.94a17.09,17.09,0,0,0-6.5-4.62,21.44,21.44,0,0,0-8.48-1.73,22.48,22.48,0,0,0-8.74,1.61,14.16,14.16,0,0,0-6.05,4.6,11.85,11.85,0,0,0-2.19,7.21,11.5,11.5,0,0,0,2.29,7.2,14.6,14.6,0,0,0,6.17,4.59,22,22,0,0,0,8.52,1.6,18.62,18.62,0,0,0,8-1.71,11.8,11.8,0,0,0,5.21-4.13H138.19V92.75h26.15v26H153.42v-3.4Q148.5,118.72,140.31,118.73Z"/><path class="cls-1" d="M210.11,117.5H169.76V72.25h40.35v9.69H180.68v8.11h24.53v9.69H180.68v8.07h29.43Z"/><path class="cls-1" d="M260.11,117.5h-12.5l-8.77-14.7h-13.4v14.7H214.53V72.25H242a17.23,17.23,0,0,1,8.46,2A14,14,0,0,1,256,79.66a15.74,15.74,0,0,1,2,7.88,15.16,15.16,0,0,1-2.27,8.27A13.41,13.41,0,0,1,250,101ZM242,93.11a4.8,4.8,0,0,0,3.61-1.45A5.66,5.66,0,0,0,247,87.54a5.48,5.48,0,0,0-1.52-4.15,5,5,0,0,0-3.5-1.45H225.44V93.11Z"/><path class="cls-1" d="M318.58,117.5H307.67V92.36L296.31,112.6h-10.5L274.45,92.36V117.5H263.53V72.25h11.92L291,101.63l15.62-29.38h11.92Z"/><path class="cls-1" d="M376.75,117.5H365.08l-4.79-9.8H337.43l-4.76,9.8H321l22.61-45.25h10.5ZM355.59,98l-6.72-13.84L342.14,98Z"/><path class="cls-1" d="M429.29,117.5H416.82L390.06,85.9v31.6H379.14V72.25h12.45l26.79,31.61V72.25h10.91Z"/><path class="cls-1" d="M462.28,117.44h-7.9V78.92H433.15V72.34h50.4v6.58H462.28Z"/><path class="cls-1" d="M527.19,117.44H487.4V72.34h39.79v6.58H495.31v12.7h26.57v6.57H495.31v12.67h31.88Z"/><path class="cls-1" d="M555.4,118.76a33.09,33.09,0,0,1-14.79-3.13,24.4,24.4,0,0,1-9.89-8.52,21.8,21.8,0,0,1-3.53-12.21,22.12,22.12,0,0,1,3.47-12.23,24.12,24.12,0,0,1,9.71-8.52A32,32,0,0,1,554.91,71a29.13,29.13,0,0,1,11.25,2.43q5.82,2.43,8.33,5.24l-4.89,5.55q-1.35-1.73-5.58-3.77a21,21,0,0,0-9.32-2.06,25.19,25.19,0,0,0-10.07,1.94A16.54,16.54,0,0,0,537.48,86a16.25,16.25,0,0,0,0,17.82,16.54,16.54,0,0,0,7.15,5.64,25.19,25.19,0,0,0,10.07,1.93,23.49,23.49,0,0,0,8.52-1.7,15,15,0,0,0,6.32-4l4.89,5.55a28.32,28.32,0,0,1-19,7.57Z"/><path class="cls-1" d="M630,117.44h-7.9V98.19h-34.6v19.25h-7.9V72.34h7.9V91.62h34.6V72.34H630Z"/><path class="cls-1" d="M452.86,145.79a8.33,8.33,0,0,0,5.51,2.4c2.63.1,4.2-.66,4.26-2.17s-1.72-2-5-2.73c-4-.91-5.47-2.06-5.36-4.41.12-2.61,2.41-4.26,6.25-4.07a10.14,10.14,0,0,1,5.34,1.59l-.89,2a10.15,10.15,0,0,0-4.47-1.31c-2.33-.21-3.67.53-3.75,2-.09,1.29,1.42,1.78,4.91,2.46,3.78.76,5.49,2.08,5.41,4.53-.11,2.91-2.65,4.43-6.78,4.31a9.24,9.24,0,0,1-6.74-2.82Z"/><path class="cls-1" d="M475.49,135.13H478V150h-2.53Z"/><path class="cls-1" d="M489.69,145.79a8.35,8.35,0,0,0,5.51,2.4c2.63.1,4.2-.66,4.26-2.17s-1.71-2-4.95-2.73c-4-.91-5.47-2.06-5.37-4.41.13-2.61,2.42-4.26,6.25-4.07a10.18,10.18,0,0,1,5.35,1.59l-.89,2a10.24,10.24,0,0,0-4.48-1.31c-2.33-.21-3.66.53-3.75,2-.08,1.29,1.42,1.78,4.92,2.46,3.77.76,5.49,2.08,5.4,4.53-.1,2.91-2.64,4.43-6.78,4.31a9.25,9.25,0,0,1-6.74-2.82Z"/><path class="cls-1" d="M528,137.27h-6.89V150h-2.52v-12.7h-6.87v-2.1H528Z"/><path class="cls-1" d="M550.54,147.87V150h-12v-14.8h11.67v2.1h-9.15v4.2h8.33v1.95h-8.33v4.45Z"/><path class="cls-1" d="M561.14,150v-14.8h2.52l7.12,11.36,7.12-11.36h2.5V150h-2.5V139.58L571.54,150H570l-6.36-10.41V150Z"/><path class="cls-1" d="M603.59,147.59h-9.43L593,150h-2.63l7.44-15H600l7.41,15h-2.65Zm-.89-1.8L598.88,138l-3.83,7.78Z"/><path class="cls-1" d="M617.79,145.79a8.33,8.33,0,0,0,5.51,2.4c2.63.1,4.2-.66,4.26-2.17s-1.72-2-5-2.73c-4-.91-5.47-2.06-5.36-4.41.12-2.61,2.41-4.26,6.25-4.07a10.14,10.14,0,0,1,5.34,1.59l-.89,2a10.15,10.15,0,0,0-4.47-1.31c-2.33-.21-3.67.53-3.75,2-.09,1.29,1.42,1.78,4.91,2.46,3.78.76,5.49,2.08,5.41,4.53-.11,2.91-2.65,4.43-6.78,4.31a9.24,9.24,0,0,1-6.74-2.82Z"/><polygon class="cls-1" points="84.78 35.67 72.38 35.67 59.98 35.67 59.98 23.27 59.98 10.87 72.38 10.87 84.78 10.87 84.78 23.27 84.78 35.67"/><polygon class="cls-2" points="59.98 62.95 46.35 62.95 32.71 62.95 32.71 49.31 32.71 35.67 46.35 35.67 59.98 35.67 59.98 49.31 59.98 62.95"/><polygon class="cls-3" points="32.71 90.22 19.07 90.22 5.43 90.22 5.43 76.59 5.43 62.95 19.07 62.95 32.71 62.95 32.71 76.59 32.71 90.22"/><polygon class="cls-1" points="59.98 117.5 46.35 117.5 32.71 117.5 32.71 103.86 32.71 90.22 46.35 90.22 59.98 90.22 59.98 103.86 59.98 117.5"/><polygon class="cls-3" points="77.65 90.22 68.82 90.22 59.98 90.22 59.98 81.39 59.98 72.55 68.82 72.55 77.65 72.55 77.65 81.39 77.65 90.22"/></svg>