<svg id="Layer_1" data-name="Layer 1" xmlns="http://www.w3.org/2000/svg" viewBox="0 0 544.72 236.15"><defs><style>.cls-1{fill:#1d1d1b;}.cls-2{fill:#fbba00;}.cls-3{fill:#e30613;}</style></defs><path class="cls-1" d="M41.78,190a33.81,33.81,0,0,1-14.87-3.1,24.92,24.92,0,0,1-10.07-8.49,22.47,22.47,0,0,1,0-24.49,24.81,24.81,0,0,1,10.07-8.51,33.81,33.81,0,0,1,14.87-3.11,31.6,31.6,0,0,1,11.58,2.4,26.42,26.42,0,0,1,9.89,6.46l-7.16,7.93a17.09,17.09,0,0,0-6.5-4.62,21.43,21.43,0,0,0-8.48-1.72,22.29,22.29,0,0,0-8.74,1.61,14.07,14.07,0,0,0-6,4.6,11.77,11.77,0,0,0-2.2,7.21,11.5,11.5,0,0,0,2.29,7.2A14.69,14.69,0,0,0,32.59,178a22,22,0,0,0,8.52,1.6,18.7,18.7,0,0,0,8-1.71,11.77,11.77,0,0,0,5.2-4.14H39.66V164H65.81v26H54.89v-3.39Q50,190,41.78,190Z"/><path class="cls-1" d="M111.58,188.78H71.23V143.53h40.35v9.69H82.15v8.1h24.53V171H82.15v8.08h29.43Z"/><path class="cls-1" d="M161.58,188.78h-12.5l-8.77-14.7h-13.4v14.7H116V143.53h27.45a17.23,17.23,0,0,1,8.46,2,13.87,13.87,0,0,1,5.52,5.43,15.72,15.72,0,0,1,1.95,7.88,15.13,15.13,0,0,1-2.27,8.27,13.41,13.41,0,0,1-5.69,5.18Zm-18.13-24.4a4.83,4.83,0,0,0,3.61-1.44,5.67,5.67,0,0,0,1.41-4.12,5.47,5.47,0,0,0-1.52-4.15,4.9,4.9,0,0,0-3.5-1.45H126.91v11.16Z"/><path class="cls-1" d="M220.05,188.78H209.14V163.63l-11.36,20.25h-10.5l-11.36-20.25v25.15H165V143.53h11.92l15.59,29.38,15.63-29.38h11.91Z"/><path class="cls-1" d="M278.22,188.78H266.55l-4.79-9.8H238.9l-4.76,9.8H222.47l22.61-45.25h10.5Zm-21.16-19.49-6.71-13.84-6.74,13.84Z"/><path class="cls-1" d="M330.76,188.78H318.29l-26.76-31.61v31.61H280.61V143.53h12.45l26.79,31.6v-31.6h10.91Z"/><path class="cls-1" d="M363.75,188.71h-7.9V150.19H334.62v-6.57H385v6.57H363.75Z"/><path class="cls-1" d="M428.66,188.71H388.88V143.62h39.78v6.57H396.78v12.7h26.57v6.58H396.78v12.67h31.88Z"/><path class="cls-1" d="M456.87,190a32.91,32.91,0,0,1-14.78-3.14,24.36,24.36,0,0,1-9.9-8.52,21.77,21.77,0,0,1-3.53-12.2A22.12,22.12,0,0,1,432.13,154a24.12,24.12,0,0,1,9.71-8.52,32,32,0,0,1,14.54-3.14,29.13,29.13,0,0,1,11.25,2.43q5.83,2.43,8.33,5.23l-4.89,5.55q-1.35-1.71-5.58-3.77a21,21,0,0,0-9.32-2,25.19,25.19,0,0,0-10.07,1.93,16.69,16.69,0,0,0-7.15,5.64,16.27,16.27,0,0,0,0,17.83,16.69,16.69,0,0,0,7.15,5.64,25.19,25.19,0,0,0,10.07,1.93,23.71,23.71,0,0,0,8.52-1.7,15,15,0,0,0,6.32-4l4.89,5.55a28.44,28.44,0,0,1-19,7.57Z"/><path class="cls-1" d="M531.51,188.71h-7.9V169.47H489v19.24h-7.9V143.62H489v19.27h34.6V143.62h7.9Z"/><path class="cls-1" d="M354.33,217.07a8.37,8.37,0,0,0,5.51,2.39c2.63.11,4.2-.66,4.26-2.16s-1.72-2-5-2.73c-4-.92-5.47-2.06-5.36-4.41.13-2.61,2.41-4.26,6.25-4.07a10,10,0,0,1,5.34,1.59l-.89,2a10,10,0,0,0-4.47-1.32c-2.33-.21-3.67.53-3.75,2-.09,1.29,1.42,1.78,4.91,2.45,3.78.77,5.49,2.08,5.41,4.54-.11,2.9-2.65,4.43-6.78,4.3a9.16,9.16,0,0,1-6.74-2.82Z"/><path class="cls-1" d="M377,206.41h2.53v14.87H377Z"/><path class="cls-1" d="M391.16,217.07a8.39,8.39,0,0,0,5.51,2.39c2.63.11,4.2-.66,4.26-2.16s-1.71-2-4.95-2.73c-4-.92-5.47-2.06-5.37-4.41.13-2.61,2.42-4.26,6.26-4.07a10.08,10.08,0,0,1,5.34,1.59l-.89,2a10.1,10.1,0,0,0-4.48-1.32c-2.33-.21-3.66.53-3.75,2-.08,1.29,1.42,1.78,4.92,2.45,3.77.77,5.49,2.08,5.41,4.54-.11,2.9-2.65,4.43-6.79,4.3a9.18,9.18,0,0,1-6.74-2.82Z"/><path class="cls-1" d="M429.42,208.55h-6.89v12.69H420V208.55h-6.87v-2.1h16.28Z"/><path class="cls-1" d="M452,219.14v2.1H440V206.45h11.67v2.1h-9.15v4.19h8.33v1.95h-8.33v4.45Z"/><path class="cls-1" d="M462.61,221.24V206.45h2.52l7.12,11.36,7.12-11.36h2.5v14.79h-2.5V210.86L473,221.31h-1.52l-6.36-10.41v10.34Z"/><path class="cls-1" d="M505.06,218.87h-9.43l-1.17,2.37h-2.63l7.44-15h2.19l7.41,15h-2.65Zm-.89-1.8-3.82-7.78-3.83,7.78Z"/><path class="cls-1" d="M519.26,217.07a8.37,8.37,0,0,0,5.51,2.39c2.63.11,4.2-.66,4.26-2.16s-1.72-2-5-2.73c-4-.92-5.47-2.06-5.36-4.41.13-2.61,2.41-4.26,6.25-4.07a10,10,0,0,1,5.34,1.59l-.89,2a10,10,0,0,0-4.47-1.32c-2.33-.21-3.67.53-3.75,2-.09,1.29,1.42,1.78,4.91,2.45,3.78.77,5.49,2.08,5.41,4.54-.11,2.9-2.65,4.43-6.78,4.3a9.16,9.16,0,0,1-6.74-2.82Z"/><polygon class="cls-1" points="355.65 39.33 343.26 39.33 330.86 39.33 330.86 26.94 330.86 14.54 343.26 14.54 355.65 14.54 355.65 26.94 355.65 39.33"/><polygon class="cls-2" points="330.86 66.61 317.22 66.61 303.58 66.61 303.58 52.97 303.58 39.34 317.22 39.34 330.86 39.34 330.86 52.97 330.86 66.61"/><polygon class="cls-3" points="303.58 93.89 289.94 93.89 276.3 93.89 276.3 80.25 276.3 66.61 289.94 66.61 303.58 66.61 303.58 80.25 303.58 93.89"/><polygon class="cls-1" points="330.86 121.17 317.22 121.17 303.58 121.17 303.58 107.53 303.58 93.89 317.22 93.89 330.86 93.89 330.86 107.53 330.86 121.17"/><polygon class="cls-3" points="348.53 93.89 339.69 93.89 330.86 93.89 330.86 85.06 330.86 76.22 339.69 76.22 348.53 76.22 348.53 85.06 348.53 93.89"/></svg>