<?xml version="1.0" encoding="utf-8"?>
<!-- Generator: Adobe Illustrator 26.3.1, SVG Export Plug-In . SVG Version: 6.00 Build 0)  -->
<svg version="1.1" xmlns="http://www.w3.org/2000/svg" xmlns:xlink="http://www.w3.org/1999/xlink" x="0px" y="0px"
	 viewBox="0 0 150 150" style="enable-background:new 0 0 150 150;" xml:space="preserve">
<style type="text/css">
	.st0{fill:#FFFFFF;}
	.st1{fill:#33CCFF;}
	.st2{fill:#FF0000;}
	.st3{fill:#787878;}
	.st4{fill:#27ADFF;}
	.st5{fill:url(#SVGID_1_);}
	.st6{fill:#337FFF;}
	.st7{fill:#00D95F;}
	.st8{fill-rule:evenodd;clip-rule:evenodd;fill:#FFFFFF;}
	.st9{fill:url(#SVGID_00000129178602837420523010000009489704270993069988_);}
	.st10{fill:url(#SVGID_00000119813769493692491270000006936277425351598526_);}
	.st11{fill:url(#SVGID_00000089532461481053180370000017260642874718868102_);}
	.st12{fill-rule:evenodd;clip-rule:evenodd;fill:#00D95F;}
	.st13{fill:#007AB5;}
</style>
<g id="BACKGROUND">
</g>
<g id="ELEMENTS">
	<g>
		<g>
			<path class="st0" d="M-94.6-16.3L-94.6-16.3c-1.4,0-2.8-0.6-3.8-1.7c-2.2-2.4-54.4-58.9-54.4-89.9c0-32.1,26.1-58.2,58.2-58.2
				c32.1,0,58.2,26.1,58.2,58.2c0,31-52.2,87.5-54.4,89.9C-91.8-16.9-93.2-16.3-94.6-16.3z M-94.6-155.7
				c-26.4,0-47.8,21.5-47.8,47.8c0,20.6,31.6,60.4,47.8,78.6c16.2-18.3,47.8-58.1,47.8-78.6C-46.8-134.3-68.3-155.7-94.6-155.7z"/>
		</g>
		<g>
			<path class="st0" d="M-94.6-84.2c-14.5,0-26.2-11.8-26.2-26.2c0-14.5,11.8-26.2,26.2-26.2c14.5,0,26.2,11.8,26.2,26.2
				C-68.4-96-80.2-84.2-94.6-84.2z M-94.6-126.3c-8.7,0-15.8,7.1-15.8,15.8c0,8.7,7.1,15.8,15.8,15.8c8.7,0,15.8-7.1,15.8-15.8
				C-78.8-119.2-85.9-126.3-94.6-126.3z"/>
		</g>
	</g>
	<path class="st1" d="M-453.5,0c-41.4,0-75,33.6-75,75c0,41.4,33.6,75,75,75c41.4,0,75-33.6,75-75C-378.5,33.6-412.2,0-453.5,0z
		 M-389.1,69.8h-28.2c-0.7-23.4-6.1-43.2-14.5-55.7C-408.4,22.5-391.2,44.1-389.1,69.8z M-453.5,139.6c-11.7,0-24.7-24.2-25.8-59.5
		h51.7C-428.8,115.5-441.8,139.6-453.5,139.6z M-479.4,69.8c1.2-35.3,14.1-59.5,25.8-59.5c11.7,0,24.7,24.2,25.9,59.5H-479.4z
		 M-475.3,14.1c-8.3,12.5-13.8,32.3-14.5,55.7H-518C-515.9,44.1-498.7,22.5-475.3,14.1z M-518,80.2h28.2
		c0.7,23.4,6.1,43.2,14.5,55.7C-498.7,127.5-515.9,105.9-518,80.2z M-431.8,135.9c8.3-12.5,13.8-32.3,14.5-55.7h28.2
		C-391.2,105.9-408.4,127.5-431.8,135.9z"/>
	<path class="st0" d="M-453.5-166.2c-41.4,0-75,33.6-75,75c0,41.4,33.6,75,75,75c41.4,0,75-33.6,75-75
		C-378.5-132.5-412.2-166.2-453.5-166.2z M-389.1-96.3h-28.2c-0.7-23.4-6.1-43.2-14.5-55.7C-408.4-143.6-391.2-122.1-389.1-96.3z
		 M-453.5-26.5c-11.7,0-24.7-24.2-25.8-59.5h51.7C-428.8-50.7-441.8-26.5-453.5-26.5z M-479.4-96.3c1.2-35.3,14.1-59.5,25.8-59.5
		c11.7,0,24.7,24.2,25.9,59.5H-479.4z M-475.3-152c-8.3,12.5-13.8,32.3-14.5,55.7H-518C-515.9-122.1-498.7-143.6-475.3-152z
		 M-518-86h28.2c0.7,23.4,6.1,43.2,14.5,55.7C-498.7-38.7-515.9-60.2-518-86z M-431.8-30.3c8.3-12.5,13.8-32.3,14.5-55.7h28.2
		C-391.2-60.2-408.4-38.7-431.8-30.3z"/>
	<g>
		<path class="st2" d="M-99.1,37.8c-9.5,0-17.2,7.7-17.2,17.2c0,9.5,7.7,17.2,17.2,17.2c9.5,0,17.2-7.7,17.2-17.2
			C-81.8,45.6-89.6,37.8-99.1,37.8z"/>
		<path class="st2" d="M-99.1,0c-31.9,0-57.8,25.9-57.8,57.8c0,27.2,42.1,76.5,54.4,90.5c1.8,2,5,2,6.8,0
			c12.4-13.9,54.4-63.2,54.4-90.5C-41.2,25.9-67.1,0-99.1,0z M-99.1,83.7c-15.8,0-28.6-12.8-28.6-28.6c0-15.8,12.8-28.6,28.6-28.6
			c15.8,0,28.6,12.8,28.6,28.6C-70.5,70.8-83.3,83.7-99.1,83.7z"/>
	</g>
	<g>
		<path class="st0" d="M-99.1-295.6c-9.5,0-17.2,7.7-17.2,17.2c0,9.5,7.7,17.2,17.2,17.2c9.5,0,17.2-7.7,17.2-17.2
			C-81.8-287.8-89.6-295.6-99.1-295.6z"/>
		<path class="st0" d="M-99.1-333.4c-31.9,0-57.8,25.9-57.8,57.8c0,27.2,42.1,76.5,54.4,90.5c1.8,2,5,2,6.8,0
			c12.4-13.9,54.4-63.2,54.4-90.5C-41.2-307.5-67.1-333.4-99.1-333.4z M-99.1-249.7c-15.8,0-28.6-12.8-28.6-28.6
			c0-15.8,12.8-28.6,28.6-28.6c15.8,0,28.6,12.8,28.6,28.6C-70.5-262.6-83.3-249.7-99.1-249.7z"/>
	</g>
	<g>
		<path class="st0" d="M-481.4-252.8c1.3,38.9,15.2,65.6,27.8,65.6c12.6,0,26.6-26.7,27.9-65.6H-481.4z"/>
		<path class="st0" d="M-453.5-329.8c-12.6,0-26.6,26.7-27.8,65.6h55.7C-426.9-303.1-440.9-329.8-453.5-329.8z"/>
		<path class="st0" d="M-414.5-264.2h36c-2.4-34-26.4-61.8-57.9-69.3C-423.9-321.3-415.4-295.7-414.5-264.2z"/>
		<path class="st0" d="M-414.5-252.8c-0.9,31.5-9.4,57.1-22,69.3c31.6-7.5,55.5-35.3,57.9-69.3H-414.5z"/>
		<path class="st0" d="M-492.5-252.8h-36c2.4,34,26.4,61.8,57.9,69.3C-483.1-195.7-491.6-221.3-492.5-252.8z"/>
		<path class="st0" d="M-492.5-264.2c0.9-31.5,9.4-57.1,22-69.3c-31.6,7.5-55.5,35.3-57.9,69.3H-492.5z"/>
	</g>
	<path class="st0" d="M96.6-259.7c11.1-7.1,18.5-19.6,18.5-33.7c0-22.1-18-40.1-40.1-40.1s-40.1,18-40.1,40.1
		c0,14.2,7.4,26.6,18.5,33.7c-22.7,8.7-38.9,30.7-38.9,56.5c0,10.9,8.8,19.7,19.7,19.7h81.6c10.9,0,19.7-8.8,19.7-19.7
		C135.5-228.9,119.3-251,96.6-259.7z M45.3-293.4c0-16.4,13.3-29.7,29.7-29.7c16.4,0,29.7,13.3,29.7,29.7
		c0,16.4-13.3,29.7-29.7,29.7C58.6-263.7,45.3-277,45.3-293.4z M115.8-193.8H34.2c-5.1,0-9.3-4.2-9.3-9.3
		c0-27.6,22.5-50.1,50.1-50.1c27.6,0,50.1,22.5,50.1,50.1C125.1-198,120.9-193.8,115.8-193.8z"/>
	<g>
		<g>
			<ellipse transform="matrix(0.2298 -0.9732 0.9732 0.2298 26.6028 97.6588)" class="st3" cx="75" cy="32" rx="32" ry="32"/>
		</g>
		<g>
			<path class="st3" d="M75,75L75,75c-32.8,0-59.4,26.6-59.4,59.4l0,0c0,8.6,7,15.6,15.6,15.6h87.6c8.6,0,15.6-7,15.6-15.6l0,0
				C134.4,101.6,107.8,75,75,75z"/>
		</g>
	</g>
	<g>
		<g>
			<ellipse transform="matrix(0.2298 -0.9732 0.9732 0.2298 188.3119 -30.321)" class="st0" cx="75" cy="-134.1" rx="32" ry="32"/>
		</g>
		<g>
			<path class="st0" d="M75-91.2L75-91.2c-32.8,0-59.4,26.6-59.4,59.4l0,0c0,8.6,7,15.6,15.6,15.6h87.6c8.6,0,15.6-7,15.6-15.6l0,0
				C134.4-64.6,107.8-91.2,75-91.2z"/>
		</g>
	</g>
	<g>
		<ellipse transform="matrix(0.4332 -0.9013 0.9013 0.4332 424.1781 -172.4249)" class="st3" cx="75" cy="-423.5" rx="75" ry="75"/>
		<g>
			<g>
				<path class="st0" d="M96.4-458.8c0,11.8-9.6,21.4-21.4,21.4c-11.8,0-21.4-9.6-21.4-21.4c0-11.8,9.6-21.4,21.4-21.4
					C86.8-480.2,96.4-470.6,96.4-458.8z"/>
			</g>
			<g>
				<path class="st0" d="M75-430.1L75-430.1c-21.9,0-39.6,17.7-39.6,39.6l0,0c0,5.7,4.7,10.4,10.4,10.4h58.5
					c5.7,0,10.4-4.7,10.4-10.4l0,0C114.6-412.4,96.9-430.1,75-430.1z"/>
			</g>
		</g>
	</g>
	<g>
		<g>
			<path class="st4" d="M-343.3,18.9l52.1,59.1c3,3.4,7.2,5.3,11.7,5.3c4.5,0,8.7-1.9,11.7-5.3l51.2-58.1c0.4-0.5,0.9-0.8,1.5-1.1
				c-2.2-1-4.6-1.5-7.1-1.5h-114.6c-2.4,0-4.7,0.5-6.8,1.4C-343.5,18.7-343.4,18.8-343.3,18.9z"/>
			<path class="st4" d="M-207.2,25.6c-0.2,0.6-0.6,1.2-1,1.7l-51.2,58.1c-5.1,5.8-12.4,9.1-20.1,9.1c-7.7,0-15-3.3-20.1-9.1
				l-52.1-59.1c-0.1-0.1-0.2-0.3-0.3-0.4c-1.6,2.7-2.6,5.8-2.6,9.1v80c0,9.8,7.9,17.7,17.7,17.7h114.6c9.8,0,17.7-7.9,17.7-17.7V35
				C-204.5,31.5-205.5,28.3-207.2,25.6z"/>
		</g>
	</g>
	<path class="st0" d="M-226.1-150.1h-106.7c-11.9,0-21.7,9.7-21.7,21.7v74.5c0,11.9,9.7,21.7,21.7,21.7h106.7
		c11.9,0,21.7-9.7,21.7-21.7v-74.5C-204.5-140.4-214.2-150.1-226.1-150.1z M-226.1-139.7c0.9,0,1.7,0.1,2.6,0.3l-45,51.1
		c-2.8,3.1-6.7,4.9-10.9,4.9c-4.2,0-8.1-1.8-10.9-4.9l-45-51.1c0.8-0.2,1.7-0.3,2.6-0.3H-226.1z M-214.8-53.9
		c0,6.2-5.1,11.3-11.3,11.3h-106.7c-6.2,0-11.3-5.1-11.3-11.3v-74.5c0-1.5,0.3-3,0.8-4.3l45.1,51.2c4.7,5.4,11.5,8.4,18.7,8.4
		c7.1,0,13.9-3.1,18.7-8.4l45.1-51.2c0.5,1.3,0.8,2.8,0.8,4.3V-53.9z"/>
	<g>
		<circle class="st4" cx="-279.5" cy="-423.5" r="75"/>
		<g>
			<path class="st0" d="M-322-460.9l34.8,39.5c2,2.2,4.8,3.5,7.8,3.5c3,0,5.8-1.3,7.8-3.5l34.2-38.8c0.3-0.3,0.6-0.6,1-0.8
				c-1.4-0.6-3-1-4.7-1h-76.5c-1.6,0-3.1,0.3-4.5,0.9C-322.2-461-322.1-461-322-460.9z"/>
			<path class="st0" d="M-231.2-456.4c-0.2,0.4-0.4,0.8-0.7,1.1l-34.2,38.8c-3.4,3.8-8.3,6-13.4,6c-5.1,0-10-2.2-13.4-6l-34.8-39.5
				c-0.1-0.1-0.1-0.2-0.2-0.3c-1.1,1.8-1.7,3.9-1.7,6.1v53.4c0,6.5,5.3,11.8,11.8,11.8h76.5c6.5,0,11.8-5.3,11.8-11.8v-53.4
				C-229.4-452.5-230.1-454.6-231.2-456.4z"/>
		</g>
	</g>
	<g>
		<path class="st0" d="M-279.5-333.5c-41.4,0-75,33.6-75,75c0,41.4,33.6,75,75,75s75-33.6,75-75C-204.5-299.9-238-333.5-279.5-333.5
			z M-317.7-297h76.4c1.7,0,3.3,0.3,4.7,1c-0.4,0.2-0.7,0.4-1,0.8l-34.2,38.8c-2,2.2-4.8,3.5-7.8,3.5s-5.8-1.3-7.8-3.5l-34.8-39.5
			c-0.1-0.1-0.1-0.1-0.2-0.2C-320.8-296.7-319.3-297-317.7-297z M-229.4-231.8c0,6.5-5.3,11.8-11.8,11.8h-76.4
			c-6.5,0-11.8-5.3-11.8-11.8v-53.4c0-2.2,0.6-4.3,1.7-6.1c0.1,0.1,0.1,0.2,0.2,0.2l34.8,39.5c3.4,3.8,8.3,6,13.4,6s10-2.2,13.4-6
			l34.2-38.8c0.3-0.3,0.5-0.7,0.7-1.1c1.1,1.8,1.8,4,1.8,6.3V-231.8z"/>
	</g>
	<g>
		<circle class="st2" cx="-99.1" cy="-423.5" r="75"/>
		<g>
			<path class="st0" d="M-99.1-473.5c-21.3,0-38.6,17.3-38.6,38.6c0,18.2,28.1,51.1,36.4,60.4c1.2,1.4,3.3,1.4,4.5,0
				c8.3-9.3,36.4-42.2,36.4-60.4C-60.4-456.2-77.7-473.5-99.1-473.5z M-99.1-417.6c-10.5,0-19.1-8.6-19.1-19.1
				c0-10.5,8.6-19.1,19.1-19.1c10.5,0,19.1,8.6,19.1,19.1C-80-426.2-88.5-417.6-99.1-417.6z"/>
		</g>
	</g>
	<g>
		<circle class="st1" cx="-453.5" cy="-423.5" r="75"/>
		<g>
			<path class="st0" d="M-472.1-419.7c0.8,25.4,10.2,42.7,18.6,42.7c8.4,0,17.7-17.4,18.6-42.7H-472.1z"/>
			<path class="st0" d="M-453.5-469.9c-8.4,0-17.7,17.4-18.6,42.7h37.2C-435.8-452.6-445.1-469.9-453.5-469.9z"/>
			<path class="st0" d="M-427.5-427.2h24c-1.6-22.1-17.6-40.3-38.7-45.2C-433.8-464.4-428.1-447.7-427.5-427.2z"/>
			<path class="st0" d="M-427.5-419.7c-0.6,20.5-6.3,37.2-14.6,45.2c21.1-4.9,37-23,38.7-45.2H-427.5z"/>
			<path class="st0" d="M-479.6-419.7h-24c1.6,22.1,17.6,40.3,38.7,45.2C-473.3-382.5-478.9-399.2-479.6-419.7z"/>
			<path class="st0" d="M-479.6-427.2c0.6-20.5,6.3-37.2,14.6-45.2c-21.1,4.9-37,23-38.7,45.2H-479.6z"/>
		</g>
	</g>
	<g>
		<linearGradient id="SVGID_1_" gradientUnits="userSpaceOnUse" x1="-1210.9459" y1="-482.7975" x2="-1060.9755" y2="-356.1331">
			<stop  offset="1.104800e-03" style="stop-color:#FBE18A"/>
			<stop  offset="0.2094" style="stop-color:#FCBB45"/>
			<stop  offset="0.3765" style="stop-color:#F75274"/>
			<stop  offset="0.5238" style="stop-color:#D53692"/>
			<stop  offset="0.7394" style="stop-color:#8F39CE"/>
			<stop  offset="1" style="stop-color:#5B4FE9"/>
		</linearGradient>
		<circle class="st5" cx="-1140.7" cy="-423.5" r="75"/>
		<g>
			<g>
				<path class="st0" d="M-1117.4-451.8c-2.8,0-5.2,2.3-5.2,5.2c0,2.8,2.3,5.2,5.2,5.2c2.8,0,5.2-2.3,5.2-5.2
					C-1112.3-449.5-1114.6-451.8-1117.4-451.8z"/>
				<path class="st0" d="M-1140.3-445.2c-11.9,0-21.7,9.7-21.7,21.7c0,11.9,9.7,21.7,21.7,21.7s21.7-9.7,21.7-21.7
					C-1118.7-435.5-1128.4-445.2-1140.3-445.2z M-1140.3-409.7c-7.6,0-13.9-6.2-13.9-13.9c0-7.6,6.2-13.9,13.9-13.9
					s13.9,6.2,13.9,13.9C-1126.5-415.9-1132.7-409.7-1140.3-409.7z"/>
				<path class="st0" d="M-1123.1-379.6h-35.1c-14.6,0-26.4-11.8-26.4-26.4v-35.1c0-14.6,11.8-26.4,26.4-26.4h35.1
					c14.6,0,26.4,11.8,26.4,26.4v35.1C-1096.7-391.4-1108.6-379.6-1123.1-379.6z M-1158.2-459.3c-10,0-18.1,8.1-18.1,18.1v35.1
					c0,10,8.1,18.1,18.1,18.1h35.1c10,0,18.1-8.1,18.1-18.1v-35.1c0-10-8.1-18.1-18.1-18.1H-1158.2z"/>
			</g>
		</g>
	</g>
	<g>
		<circle class="st0" cx="-1140.3" cy="-258.6" r="13.9"/>
		<path class="st0" d="M-1123.1-294.3h-35.1c-10,0-18.1,8.1-18.1,18.1v35.1c0,10,8.1,18.1,18.1,18.1h35.1c10,0,18.1-8.1,18.1-18.1
			v-35.1C-1105-286.2-1113.1-294.3-1123.1-294.3z M-1140.3-236.9c-11.9,0-21.7-9.7-21.7-21.7c0-11.9,9.7-21.7,21.7-21.7
			c11.9,0,21.7,9.7,21.7,21.7C-1118.7-246.7-1128.4-236.9-1140.3-236.9z M-1117.4-276.6c-2.8,0-5.2-2.3-5.2-5.2s2.3-5.2,5.2-5.2
			s5.2,2.3,5.2,5.2S-1114.6-276.6-1117.4-276.6z"/>
		<path class="st0" d="M-1140.7-333.5c-41.4,0-75,33.6-75,75c0,41.4,33.6,75,75,75s75-33.6,75-75
			C-1065.7-299.9-1099.3-333.5-1140.7-333.5z M-1096.7-241c0,14.6-11.8,26.4-26.4,26.4h-35.1c-14.6,0-26.4-11.9-26.4-26.4v-35.1
			c0-14.6,11.8-26.4,26.4-26.4h35.1c14.6,0,26.4,11.8,26.4,26.4V-241z"/>
	</g>
	<g>
		<g>
			<path class="st6" d="M-1233-423.5c0-41.4-33.6-75-75-75s-75,33.6-75,75c0,37.4,27.4,68.5,63.3,74.1v-52.4h-19v-21.7h19V-440
				c0-18.8,11.2-29.2,28.3-29.2c8.2,0,16.8,1.5,16.8,1.5v18.5h-9.5c-9.3,0-12.2,5.8-12.2,11.7v14.1h20.8l-3.3,21.7h-17.5v52.4
				C-1260.5-355-1233-386-1233-423.5z"/>
			<path class="st0" d="M-1278.8-401.8l3.3-21.7h-20.8v-14.1c0-5.9,2.9-11.7,12.2-11.7h9.5v-18.5c0,0-8.6-1.5-16.8-1.5
				c-17.1,0-28.3,10.4-28.3,29.2v16.5h-19v21.7h19v52.4c3.8,0.6,7.7,0.9,11.7,0.9c4,0,7.9-0.3,11.7-0.9v-52.4H-1278.8z"/>
		</g>
	</g>
	<path class="st6" d="M-1273.4,84.1l4.1-26.9h-25.8V39.7c0-7.4,3.6-14.6,15.2-14.6h11.8V2.2c0,0-10.7-1.8-20.9-1.8
		c-21.3,0-35.2,12.9-35.2,36.3v20.5h-23.7v26.9h23.7v65.1c4.7,0.7,9.6,1.1,14.6,1.1s9.8-0.4,14.6-1.1V84.1H-1273.4z"/>
	<path class="st0" d="M-1273.4-82l4.1-26.9h-25.8v-17.5c0-7.4,3.6-14.6,15.2-14.6h11.8v-22.9c0,0-10.7-1.8-20.9-1.8
		c-21.3,0-35.2,12.9-35.2,36.3v20.5h-23.7V-82h23.7v65.1c4.7,0.7,9.6,1.1,14.6,1.1s9.8-0.4,14.6-1.1V-82H-1273.4z"/>
	<g>
		<g>
			<path class="st0" d="M-1233-258c0,37.7-27.4,68.9-63.3,74.5v-52.7h17.5l3.3-21.8h-20.8v-14.2c0-6,2.9-11.8,12.2-11.8h9.5v-18.6
				c0,0-8.6-1.5-16.8-1.5c-17.1,0-28.3,10.5-28.3,29.4v16.6h-19v21.8h19v52.7c-35.9-5.7-63.3-36.9-63.3-74.5
				c0-41.7,33.6-75.5,75-75.5S-1233-299.7-1233-258z"/>
		</g>
	</g>
	<g>
		
			<ellipse transform="matrix(0.3944 -0.9189 0.9189 0.3944 -197.437 -1146.5209)" class="st7" cx="-968.6" cy="-423.5" rx="75" ry="75"/>
		<path class="st0" d="M-1009.1-381l6.3-23.3c-3.5-6.4-5.4-13.5-5.4-20.8c0-23.8,19.3-43.1,43.1-43.1c23.8,0,43.1,19.3,43.1,43.1
			c0,23.8-19.3,43.1-43.1,43.1c-7.1,0-14.2-1.8-20.5-5.2L-1009.1-381z M-984.5-396l1.5,0.9c5.4,3.2,11.6,4.9,17.8,4.9
			c19.3,0,34.9-15.7,34.9-34.9c0-19.3-15.7-34.9-34.9-34.9c-19.3,0-34.9,15.7-34.9,34.9c0,6.4,1.8,12.6,5.1,18.1l0.9,1.5l-3.5,13
			L-984.5-396z"/>
		<path class="st8" d="M-949.2-419.2c-1.8-1.1-4.1-2.2-6.2-1.4c-1.6,0.7-2.6,3.2-3.7,4.4c-0.5,0.7-1.2,0.8-2,0.4
			c-6-2.4-10.6-6.4-13.9-11.9c-0.6-0.9-0.5-1.5,0.2-2.3c1-1.2,2.3-2.5,2.5-4.1c0.3-1.6-0.5-3.5-1.1-4.9c-0.8-1.8-1.8-4.4-3.6-5.4
			c-1.7-0.9-3.9-0.4-5.3,0.8c-2.6,2.1-3.8,5.4-3.8,8.6c0,0.9,0.1,1.8,0.3,2.7c0.5,2.1,1.5,4.1,2.6,6c0.8,1.4,1.8,2.8,2.7,4.2
			c3.2,4.4,7.2,8.2,11.9,11c2.3,1.4,4.8,2.7,7.4,3.5c2.9,1,5.5,2,8.6,1.4c3.3-0.6,6.5-2.6,7.8-5.8c0.4-0.9,0.6-2,0.4-3
			C-944.8-417-947.5-418.2-949.2-419.2z"/>
	</g>
	<g>
		<path class="st0" d="M-965.2-295.1c-19.3,0-34.9,15.7-34.9,34.9c0,6.4,1.8,12.6,5.1,18.1l0.9,1.5l-3.5,13l13.1-3.5l1.5,0.9
			c5.4,3.2,11.6,4.9,17.8,4.9c19.3,0,34.9-15.7,34.9-34.9C-930.3-279.5-945.9-295.1-965.2-295.1z M-944.7-247
			c-1.3,3.2-4.5,5.2-7.8,5.8c-3.1,0.6-5.7-0.4-8.6-1.4c-2.6-0.9-5.1-2.1-7.4-3.5c-4.6-2.8-8.6-6.6-11.8-11c-1-1.3-1.9-2.7-2.7-4.2
			c-1.1-1.9-2.1-3.9-2.6-6c-0.2-0.9-0.3-1.8-0.3-2.7c0-3.2,1.2-6.5,3.8-8.6c1.5-1.2,3.7-1.7,5.3-0.8c1.8,1,2.8,3.6,3.6,5.4
			c0.7,1.4,1.4,3.3,1.1,4.9c-0.3,1.6-1.5,2.9-2.5,4.1c-0.7,0.8-0.8,1.5-0.2,2.3c3.3,5.5,7.9,9.6,13.9,11.9c0.8,0.3,1.5,0.2,2-0.4
			c1-1.3,2.1-3.8,3.7-4.4c2.1-0.9,4.4,0.3,6.2,1.4c1.7,1,4.4,2.2,4.9,4.2C-944.1-249-944.3-247.9-944.7-247z"/>
		<path class="st0" d="M-968.6-333.5c-41.4,0-75,33.6-75,75c0,41.4,33.6,75,75,75s75-33.6,75-75
			C-893.6-299.9-927.2-333.5-968.6-333.5z M-965.2-217.1c-7.1,0-14.2-1.8-20.5-5.2l-23.5,6.3l6.2-23.3c-3.5-6.4-5.4-13.6-5.4-20.8
			c0-23.8,19.3-43.1,43.1-43.1c23.8,0,43.1,19.3,43.1,43.1C-922.1-236.4-941.4-217.1-965.2-217.1z"/>
	</g>
	<g>
		<circle class="st2" cx="-629.2" cy="-423.5" r="75"/>
		<path class="st0" d="M-589-434.2c0-9.9-8.1-18-18-18h-46.1c-9.9,0-18,8.1-18,18v21.4c0,9.9,8.1,18,18,18h46.1c9.9,0,18-8.1,18-18
			V-434.2z M-616.1-421.9l-20.7,10.2c-0.8,0.4-3.6-0.1-3.6-1.1v-21c0-0.9,2.8-1.5,3.6-1.1L-617-424
			C-616.1-423.5-615.3-422.3-616.1-421.9z"/>
	</g>
	<g>
		<path class="st0" d="M-616.1-256.9l-20.6,10.2c-0.8,0.4-3.6-0.1-3.6-1.1v-21c0-0.9,2.8-1.5,3.6-1.1L-617-259
			C-616.1-258.5-615.3-257.3-616.1-256.9z"/>
		<path class="st0" d="M-629.2-333.5c-41.4,0-75,33.6-75,75c0,41.4,33.6,75,75,75c41.4,0,75-33.6,75-75
			C-554.2-299.9-587.8-333.5-629.2-333.5z M-589-247.8c0,10-8.1,18-18,18h-46c-10,0-18-8.1-18-18v-21.4c0-10,8.1-18,18-18h46
			c10,0,18,8.1,18,18V-247.8z"/>
	</g>
	<g>
		<g>
			<path class="st0" d="M-1101-139.4c-4.9,0-8.8,3.9-8.8,8.8c0,4.9,3.9,8.8,8.8,8.8c4.9,0,8.8-3.9,8.8-8.8
				C-1092.2-135.4-1096.1-139.4-1101-139.4z"/>
			<path class="st0" d="M-1140.1-128.1c-20.4,0-36.9,16.6-36.9,36.9c0,20.4,16.6,36.9,36.9,36.9c20.4,0,36.9-16.6,36.9-36.9
				C-1103.1-111.5-1119.7-128.1-1140.1-128.1z M-1140.1-67.5c-13,0-23.7-10.6-23.7-23.7s10.6-23.7,23.7-23.7
				c13,0,23.7,10.6,23.7,23.7S-1127-67.5-1140.1-67.5z"/>
			<path class="st0" d="M-1110.8-16.2h-59.9c-24.8,0-45.1-20.2-45.1-45.1v-59.9c0-24.8,20.2-45.1,45.1-45.1h59.9
				c24.8,0,45.1,20.2,45.1,45.1v59.9C-1065.7-36.4-1085.9-16.2-1110.8-16.2z M-1170.6-152c-17.1,0-30.9,13.9-30.9,30.9v59.9
				c0,17.1,13.9,30.9,30.9,30.9h59.9c17.1,0,30.9-13.9,30.9-30.9v-59.9c0-17.1-13.9-30.9-30.9-30.9H-1170.6z"/>
		</g>
	</g>
	<g>
		<g>
			
				<linearGradient id="SVGID_00000102531442155671867100000003449334021942278800_" gradientUnits="userSpaceOnUse" x1="-1169.6964" y1="-30.1957" x2="-1033.6586" y2="100.0154">
				<stop  offset="1.104800e-03" style="stop-color:#FBE18A"/>
				<stop  offset="0.2094" style="stop-color:#FCBB45"/>
				<stop  offset="0.3765" style="stop-color:#F75274"/>
				<stop  offset="0.5238" style="stop-color:#D53692"/>
				<stop  offset="0.7394" style="stop-color:#8F39CE"/>
				<stop  offset="1" style="stop-color:#5B4FE9"/>
			</linearGradient>
			<path style="fill:url(#SVGID_00000102531442155671867100000003449334021942278800_);" d="M-1101,26.8c-4.9,0-8.8,3.9-8.8,8.8
				c0,4.9,3.9,8.8,8.8,8.8c4.9,0,8.8-3.9,8.8-8.8C-1092.2,30.7-1096.1,26.8-1101,26.8z"/>
			
				<linearGradient id="SVGID_00000029011780505031068950000008645251861869688729_" gradientUnits="userSpaceOnUse" x1="-1208.0818" y1="9.9077" x2="-1072.0442" y2="140.1185">
				<stop  offset="1.104800e-03" style="stop-color:#FBE18A"/>
				<stop  offset="0.2094" style="stop-color:#FCBB45"/>
				<stop  offset="0.3765" style="stop-color:#F75274"/>
				<stop  offset="0.5238" style="stop-color:#D53692"/>
				<stop  offset="0.7394" style="stop-color:#8F39CE"/>
				<stop  offset="1" style="stop-color:#5B4FE9"/>
			</linearGradient>
			<path style="fill:url(#SVGID_00000029011780505031068950000008645251861869688729_);" d="M-1140.1,38.1
				c-20.4,0-36.9,16.6-36.9,36.9c0,20.4,16.6,36.9,36.9,36.9c20.4,0,36.9-16.6,36.9-36.9C-1103.1,54.6-1119.7,38.1-1140.1,38.1z
				 M-1140.1,98.7c-13,0-23.7-10.6-23.7-23.7s10.6-23.7,23.7-23.7c13,0,23.7,10.6,23.7,23.7S-1127,98.7-1140.1,98.7z"/>
			
				<linearGradient id="SVGID_00000017513673872270405440000004209059995319731617_" gradientUnits="userSpaceOnUse" x1="-1208.3763" y1="10.2156" x2="-1072.3397" y2="140.4254">
				<stop  offset="1.104800e-03" style="stop-color:#FBE18A"/>
				<stop  offset="0.2094" style="stop-color:#FCBB45"/>
				<stop  offset="0.3765" style="stop-color:#F75274"/>
				<stop  offset="0.5238" style="stop-color:#D53692"/>
				<stop  offset="0.7394" style="stop-color:#8F39CE"/>
				<stop  offset="1" style="stop-color:#5B4FE9"/>
			</linearGradient>
			<path style="fill:url(#SVGID_00000017513673872270405440000004209059995319731617_);" d="M-1110.8,150h-59.9
				c-24.8,0-45.1-20.2-45.1-45.1V45.1c0-24.8,20.2-45.1,45.1-45.1h59.9c24.8,0,45.1,20.2,45.1,45.1v59.9
				C-1065.7,129.8-1085.9,150-1110.8,150z M-1170.6,14.1c-17.1,0-30.9,13.9-30.9,30.9v59.9c0,17.1,13.9,30.9,30.9,30.9h59.9
				c17.1,0,30.9-13.9,30.9-30.9V45.1c0-17.1-13.9-30.9-30.9-30.9H-1170.6z"/>
		</g>
	</g>
	<g>
		<path class="st7" d="M-1043.4,150l10.8-40.1c-6.1-11-9.3-23.3-9.3-35.8c0-40.8,33.2-74.1,74.1-74.1c40.9,0,74.1,33.2,74.1,74.1
			c0,40.9-33.2,74.1-74.1,74.1c-12.3,0-24.4-3.1-35.2-9L-1043.4,150z M-1001.1,124.2l2.5,1.5c9.3,5.6,19.9,8.5,30.7,8.5
			c33.1,0,60.1-27,60.1-60.1c0-33.1-27-60.1-60.1-60.1c-33.1,0-60.1,27-60.1,60.1c0,10.9,3,21.7,8.8,31.2l1.6,2.6l-6,22.4
			L-1001.1,124.2z"/>
		<path class="st12" d="M-940.3,84.4c-3-1.8-7-3.9-10.6-2.4c-2.8,1.1-4.5,5.4-6.3,7.6c-0.9,1.1-2,1.3-3.4,0.7
			c-10.3-4.1-18.3-11-24-20.5c-1-1.5-0.8-2.6,0.4-4c1.7-2,3.9-4.3,4.4-7.1c0.5-2.7-0.8-5.9-1.9-8.4c-1.4-3.1-3.1-7.6-6.2-9.3
			c-2.9-1.6-6.6-0.7-9.2,1.4c-4.4,3.6-6.5,9.2-6.5,14.8c0,1.6,0.2,3.2,0.6,4.7c0.9,3.7,2.6,7.1,4.5,10.4c1.4,2.5,3,4.9,4.7,7.1
			c5.5,7.5,12.4,14,20.4,18.9c4,2.4,8.3,4.6,12.7,6c5,1.6,9.4,3.4,14.8,2.3c5.6-1.1,11.2-4.6,13.4-10c0.7-1.6,1-3.4,0.6-5.1
			C-932.7,88.2-937.5,86.1-940.3,84.4z"/>
	</g>
	<g>
		<path class="st0" d="M-1043.4-16.2l10.8-40.1c-6.1-11-9.3-23.3-9.3-35.8c0-40.8,33.2-74.1,74.1-74.1c40.9,0,74.1,33.2,74.1,74.1
			c0,40.9-33.2,74.1-74.1,74.1c-12.3,0-24.4-3.1-35.2-9L-1043.4-16.2z M-1001.1-42l2.5,1.5c9.3,5.6,19.9,8.5,30.7,8.5
			c33.1,0,60.1-27,60.1-60.1c0-33.1-27-60.1-60.1-60.1c-33.1,0-60.1,27-60.1,60.1c0,10.9,3,21.7,8.8,31.2l1.6,2.6l-6,22.4
			L-1001.1-42z"/>
		<path class="st8" d="M-940.3-81.8c-3-1.8-7-3.9-10.6-2.4c-2.8,1.1-4.5,5.4-6.3,7.6c-0.9,1.1-2,1.3-3.4,0.7
			c-10.3-4.1-18.3-11-24-20.5c-1-1.5-0.8-2.6,0.4-4c1.7-2,3.9-4.3,4.4-7.1c0.5-2.7-0.8-5.9-1.9-8.4c-1.4-3.1-3.1-7.6-6.2-9.3
			c-2.9-1.6-6.6-0.7-9.2,1.4c-4.4,3.6-6.5,9.2-6.5,14.8c0,1.6,0.2,3.2,0.6,4.7c0.9,3.7,2.6,7.1,4.5,10.4c1.4,2.5,3,4.9,4.7,7.1
			c5.5,7.5,12.4,14,20.4,18.9c4,2.4,8.3,4.6,12.7,6c5,1.6,9.4,3.4,14.8,2.3c5.6-1.1,11.2-4.6,13.4-10c0.7-1.6,1-3.4,0.6-5.1
			C-932.7-78-937.5-80.1-940.3-81.8z"/>
	</g>
	<path class="st2" d="M-554.2,55.4c0-18.2-14.7-32.9-32.9-32.9h-84.2c-18.2,0-32.9,14.7-32.9,32.9v39.2c0,18.2,14.7,32.9,32.9,32.9
		h84.2c18.2,0,32.9-14.7,32.9-32.9V55.4z M-603.7,77.9l-37.7,18.7c-1.5,0.8-6.5-0.3-6.5-2V56.3c0-1.7,5.1-2.8,6.5-1.9l36.1,19.7
		C-603.7,74.9-602.1,77.1-603.7,77.9z"/>
	<path class="st0" d="M-587.1-143.7h-84.2c-18.2,0-32.9,14.7-32.9,32.9v39.2c0,18.2,14.7,32.9,32.9,32.9h84.2
		c18.2,0,32.9-14.7,32.9-32.9v-39.2C-554.2-128.9-568.9-143.7-587.1-143.7z M-603.7-88.2l-37.8,18.7c-1.5,0.8-6.5-0.3-6.5-2v-38.3
		c0-1.7,5.1-2.8,6.5-1.9l36.1,19.7C-603.7-91.2-602.1-89.1-603.7-88.2z"/>
</g>
<g id="TEXT">
	<g>
		<circle class="st13" cx="-798.9" cy="-423.5" r="75"/>
		<path class="st0" d="M-830.3-437.4h14.5v46.7h-14.5V-437.4z M-823.1-460.6c4.6,0,8.4,3.8,8.4,8.4c0,4.6-3.8,8.4-8.4,8.4
			c-4.7,0-8.4-3.8-8.4-8.4C-831.5-456.8-827.7-460.6-823.1-460.6"/>
		<path class="st0" d="M-806.7-437.4h13.9v6.4h0.2c1.9-3.7,6.7-7.5,13.7-7.5c14.7,0,17.4,9.7,17.4,22.2v25.6H-776v-22.7
			c0-5.4-0.1-12.4-7.5-12.4c-7.6,0-8.7,5.9-8.7,12v23.1h-14.5V-437.4z"/>
	</g>
	<g>
		<path class="st0" d="M-798.9-333.5c-41.4,0-75,33.6-75,75c0,41.4,33.6,75,75,75c41.4,0,75-33.6,75-75
			C-723.9-299.9-757.5-333.5-798.9-333.5z M-815.8-225.8h-14.5v-46.7h14.5V-225.8z M-823.1-278.8c-4.7,0-8.4-3.8-8.4-8.4
			c0-4.6,3.8-8.4,8.4-8.4c4.6,0,8.4,3.8,8.4,8.4C-814.7-282.6-818.4-278.8-823.1-278.8z M-761.5-225.8H-776v-22.7
			c0-5.4-0.1-12.4-7.5-12.4c-7.5,0-8.7,5.9-8.7,12v23.1h-14.5v-46.7h13.9v6.4h0.2c1.9-3.7,6.7-7.5,13.7-7.5
			c14.7,0,17.4,9.7,17.4,22.2V-225.8z"/>
	</g>
	<g>
		<path class="st13" d="M-871.4,49.9h31.1v100h-31.1V49.9z M-855.8,0.2c10,0,18,8.1,18,18c0,9.9-8.1,18-18,18c-10,0-18-8.1-18-18
			C-873.9,8.2-865.8,0.2-855.8,0.2"/>
		<path class="st13" d="M-820.8,49.9h29.8v13.7h0.4c4.2-7.9,14.3-16.1,29.4-16.1c31.5,0,37.3,20.7,37.3,47.6v54.8h-31.1v-48.6
			c0-11.6-0.2-26.5-16.2-26.5c-16.2,0-18.6,12.6-18.6,25.7v49.5h-31.1V49.9z"/>
	</g>
	<g>
		<path class="st0" d="M-871.4-116.3h31.1v100h-31.1V-116.3z M-855.8-166c10,0,18,8.1,18,18c0,9.9-8.1,18-18,18c-10,0-18-8.1-18-18
			C-873.9-157.9-865.8-166-855.8-166"/>
		<path class="st0" d="M-820.8-116.3h29.8v13.7h0.4c4.2-7.9,14.3-16.1,29.4-16.1c31.5,0,37.3,20.7,37.3,47.6v54.8h-31.1v-48.6
			c0-11.6-0.2-26.5-16.2-26.5c-16.2,0-18.6,12.6-18.6,25.7v49.5h-31.1V-116.3z"/>
	</g>
</g>
</svg>
