<?xml version="1.0" encoding="UTF-8"?><svg id="ELEMENTS" xmlns="http://www.w3.org/2000/svg" xmlns:xlink="http://www.w3.org/1999/xlink" viewBox="0 0 150 150"><defs><style>.cls-1{fill:#fff;}.cls-2{fill:url(#linear-gradient);}</style><linearGradient id="linear-gradient" x1="4.75" y1="15.66" x2="154.72" y2="142.33" gradientTransform="matrix(1, 0, 0, 1, 0, 0)" gradientUnits="userSpaceOnUse"><stop offset="0" stop-color="#fbe18a"/><stop offset=".21" stop-color="#fcbb45"/><stop offset=".38" stop-color="#f75274"/><stop offset=".52" stop-color="#d53692"/><stop offset=".74" stop-color="#8f39ce"/><stop offset="1" stop-color="#5b4fe9"/></linearGradient></defs><circle class="cls-2" cx="75" cy="75" r="75"/><g><path class="cls-1" d="M98.28,46.63c-2.85,0-5.16,2.31-5.16,5.16s2.31,5.16,5.16,5.16,5.16-2.31,5.16-5.16-2.31-5.16-5.16-5.16Z"/><path class="cls-1" d="M75.36,53.24c-11.94,0-21.66,9.71-21.66,21.66s9.72,21.66,21.66,21.66,21.66-9.72,21.66-21.66-9.72-21.66-21.66-21.66Zm0,35.53c-7.65,0-13.87-6.22-13.87-13.87s6.22-13.87,13.87-13.87,13.87,6.22,13.87,13.87-6.22,13.87-13.87,13.87Z"/><path class="cls-1" d="M92.55,118.86H57.45c-14.56,0-26.41-11.85-26.41-26.41V57.34c0-14.57,11.85-26.41,26.41-26.41h35.11c14.57,0,26.42,11.85,26.42,26.41v35.11c0,14.56-11.85,26.41-26.42,26.41ZM57.45,39.2c-10,0-18.14,8.14-18.14,18.14v35.11c0,10,8.14,18.14,18.14,18.14h35.11c10,0,18.14-8.14,18.14-18.14V57.34c0-10-8.14-18.14-18.14-18.14H57.45Z"/></g></svg>