<?xml version="1.0" encoding="UTF-8"?><svg id="ELEMENTS" xmlns="http://www.w3.org/2000/svg" viewBox="0 0 150 150"><defs><style>.cls-1{fill:#fff;}</style></defs><path class="cls-1" d="M88.07,76.6l-20.65,10.22c-.81,.44-3.56-.15-3.56-1.07v-20.97c0-.93,2.77-1.52,3.58-1.06l19.77,10.76c.83,.47,1.7,1.67,.86,2.12Z"/><path class="cls-1" d="M75,0C33.58,0,0,33.57,0,75s33.58,75,75,75,75-33.58,75-75S116.42,0,75,0Zm40.15,85.71c0,9.95-8.06,18.01-18.01,18.01H51.09c-9.95,0-18.01-8.06-18.01-18.01v-21.43c0-9.95,8.06-18.01,18.01-18.01h46.05c9.95,0,18.01,8.06,18.01,18.01v21.43Z"/></svg>