<?xml version="1.0" encoding="UTF-8"?><svg id="ELEMENTS" xmlns="http://www.w3.org/2000/svg" viewBox="0 0 150 150"><defs><style>.cls-1{fill:#fff;}.cls-2{fill:#27adff;}</style></defs><circle class="cls-2" cx="75" cy="75" r="75"/><g><path class="cls-1" d="M32.42,37.56l34.77,39.45c1.98,2.24,4.82,3.53,7.81,3.53s5.84-1.29,7.81-3.53l34.17-38.77c.28-.32,.62-.57,.97-.77-1.45-.63-3.05-.99-4.73-.99H36.77c-1.61,0-3.14,.32-4.54,.91,.06,.06,.12,.1,.18,.17Z"/><path class="cls-1" d="M123.22,42.03c-.15,.4-.37,.79-.67,1.13l-34.17,38.77c-3.39,3.84-8.26,6.04-13.38,6.04s-10-2.2-13.38-6.04L26.85,42.47c-.07-.08-.12-.17-.18-.25-1.07,1.78-1.7,3.86-1.7,6.08v53.4c0,6.52,5.29,11.81,11.81,11.81H113.23c6.52,0,11.81-5.29,11.81-11.81V48.3c0-2.31-.67-4.45-1.82-6.27Z"/></g></svg>