<?xml version="1.0" encoding="UTF-8"?><svg id="ELEMENTS" xmlns="http://www.w3.org/2000/svg" viewBox="0 0 150 150"><defs><style>.cls-1{fill:#3cf;}</style></defs><path class="cls-1" d="M75,0C33.65,0,0,33.64,0,75s33.65,75,75,75,75-33.64,75-75S116.36,0,75,0Zm64.42,69.82h-28.21c-.7-23.39-6.14-43.23-14.48-55.71,23.44,8.39,40.64,29.94,42.7,55.71Zm-64.42,69.82c-11.71,0-24.68-24.17-25.85-59.47h51.7c-1.17,35.3-14.14,59.47-25.85,59.47Zm-25.85-69.82c1.17-35.3,14.14-59.47,25.85-59.47s24.68,24.17,25.85,59.47H49.15Zm4.12-55.71c-8.35,12.48-13.78,32.31-14.48,55.71H10.58C12.63,44.06,29.84,22.51,53.27,14.12ZM10.58,80.18h28.21c.7,23.39,6.14,43.23,14.48,55.71-23.44-8.39-40.64-29.94-42.7-55.71Zm86.15,55.71c8.35-12.48,13.78-32.31,14.48-55.71h28.21c-2.05,25.77-19.26,47.32-42.7,55.71Z"/></svg>