<?xml version="1.0" encoding="UTF-8"?><svg id="ELEMENTS" xmlns="http://www.w3.org/2000/svg" xmlns:xlink="http://www.w3.org/1999/xlink" viewBox="0 0 150 150"><defs><style>.cls-1{fill:url(#linear-gradient-2);}.cls-2{fill:url(#linear-gradient-3);}.cls-3{fill:url(#linear-gradient);}</style><linearGradient id="linear-gradient" x1="46" y1="-30.2" x2="182.03" y2="100.02" gradientTransform="matrix(1, 0, 0, 1, 0, 0)" gradientUnits="userSpaceOnUse"><stop offset="0" stop-color="#fbe18a"/><stop offset=".21" stop-color="#fcbb45"/><stop offset=".38" stop-color="#f75274"/><stop offset=".52" stop-color="#d53692"/><stop offset=".74" stop-color="#8f39ce"/><stop offset="1" stop-color="#5b4fe9"/></linearGradient><linearGradient id="linear-gradient-2" x1="7.61" y1="9.91" x2="143.65" y2="140.12" xlink:href="#linear-gradient"/><linearGradient id="linear-gradient-3" x1="7.32" y1="10.22" x2="143.35" y2="140.43" xlink:href="#linear-gradient"/></defs><path class="cls-3" d="M114.71,26.78c-4.86,0-8.79,3.94-8.79,8.79s3.94,8.79,8.79,8.79,8.79-3.94,8.79-8.79-3.94-8.79-8.79-8.79Z"/><path class="cls-1" d="M75.62,38.06c-20.37,0-36.94,16.57-36.94,36.94s16.57,36.94,36.94,36.94,36.94-16.57,36.94-36.94-16.57-36.94-36.94-36.94Zm0,60.6c-13.05,0-23.66-10.61-23.66-23.66s10.62-23.66,23.66-23.66,23.66,10.61,23.66,23.66-10.61,23.66-23.66,23.66Z"/><path class="cls-2" d="M104.94,150H45.06C20.21,150,0,129.79,0,104.94V45.06C0,20.21,20.21,0,45.06,0h59.89c24.84,0,45.06,20.21,45.06,45.06v59.89c0,24.84-20.21,45.06-45.06,45.06ZM45.06,14.11c-17.06,0-30.94,13.88-30.94,30.94v59.89c0,17.06,13.88,30.94,30.94,30.94h59.89c17.06,0,30.95-13.88,30.95-30.94V45.06c0-17.06-13.88-30.94-30.95-30.94H45.06Z"/></svg>