<?xml version="1.0" encoding="UTF-8"?><svg id="ELEMENTS" xmlns="http://www.w3.org/2000/svg" viewBox="0 0 150 150"><defs><style>.cls-1{fill:#fff;}</style></defs><path class="cls-1" d="M96.58,73.82c11.11-7.13,18.51-19.57,18.51-33.73C115.09,17.98,97.1,0,75,0S34.91,17.98,34.91,40.09c0,14.16,7.4,26.59,18.51,33.73-22.72,8.71-38.91,30.74-38.91,56.49,0,10.86,8.83,19.69,19.69,19.69H115.8c10.86,0,19.69-8.83,19.69-19.69,0-25.75-16.18-47.78-38.91-56.49ZM45.26,40.09c0-16.4,13.34-29.74,29.74-29.74s29.74,13.34,29.74,29.74-13.34,29.73-29.74,29.73-29.74-13.34-29.74-29.73Zm70.53,99.56H34.2c-5.15,0-9.34-4.19-9.34-9.34,0-27.64,22.49-50.13,50.13-50.13s50.13,22.49,50.13,50.13c0,5.15-4.19,9.34-9.34,9.34Z"/></svg>