<?xml version="1.0" encoding="UTF-8"?><svg id="TEXT" xmlns="http://www.w3.org/2000/svg" viewBox="0 0 150 150"><defs><style>.cls-1{fill:#fff;}.cls-2{fill:#007ab5;}</style></defs><circle class="cls-2" cx="75" cy="75" r="75"/><path class="cls-1" d="M43.55,61.03h14.53v46.66h-14.53V61.03Zm7.27-23.19c4.65,0,8.41,3.77,8.41,8.4s-3.76,8.42-8.41,8.42-8.42-3.77-8.42-8.42,3.76-8.4,8.42-8.4"/><path class="cls-1" d="M67.17,61.03h13.91v6.38h.19c1.94-3.67,6.67-7.54,13.73-7.54,14.68,0,17.39,9.66,17.39,22.22v25.59h-14.49v-22.69c0-5.42-.11-12.37-7.54-12.37s-8.7,5.89-8.7,11.98v23.08h-14.5V61.03Z"/></svg>