<?xml version="1.0" encoding="UTF-8"?><svg id="ELEMENTS" xmlns="http://www.w3.org/2000/svg" viewBox="0 0 150 150"><defs><style>.cls-1{fill:#fff;}</style></defs><circle class="cls-1" cx="75.36" cy="74.89" r="13.87"/><path class="cls-1" d="M92.55,39.2H57.45c-10.01,0-18.15,8.13-18.15,18.14v35.11c0,10,8.14,18.14,18.15,18.14h35.1c10.01,0,18.15-8.14,18.15-18.14V57.34c0-10.01-8.14-18.14-18.15-18.14Zm-17.19,57.35c-11.94,0-21.66-9.72-21.66-21.66s9.72-21.66,21.66-21.66,21.66,9.72,21.66,21.66-9.72,21.66-21.66,21.66Zm22.92-39.62c-2.85,0-5.15-2.3-5.15-5.15s2.3-5.16,5.15-5.16,5.16,2.31,5.16,5.16-2.31,5.15-5.16,5.15Z"/><path class="cls-1" d="M75,0C33.58,0,0,33.57,0,75s33.58,75,75,75,75-33.58,75-75S116.42,0,75,0Zm43.97,92.45c0,14.56-11.85,26.41-26.42,26.41H57.45c-14.57,0-26.42-11.85-26.42-26.41V57.34c0-14.57,11.85-26.42,26.42-26.42h35.1c14.57,0,26.42,11.85,26.42,26.42v35.11Z"/></svg>