<?xml version="1.0" encoding="UTF-8"?><svg id="ELEMENTS" xmlns="http://www.w3.org/2000/svg" viewBox="0 0 150 150"><defs><style>.cls-1{fill:#fff;}</style></defs><path class="cls-1" d="M47.15,80.71c1.26,38.94,15.24,65.6,27.85,65.6s26.59-26.66,27.85-65.6H47.15Z"/><path class="cls-1" d="M75,3.69c-12.61,0-26.59,26.66-27.85,65.6h55.7C101.59,30.36,87.61,3.69,75,3.69Z"/><path class="cls-1" d="M114.01,69.29h35.99C147.57,35.33,123.63,7.5,92.06,0c12.52,12.2,21.03,37.83,21.95,69.29Z"/><path class="cls-1" d="M114.01,80.71c-.92,31.47-9.43,57.09-21.95,69.29,31.57-7.5,55.51-35.33,57.94-69.29h-35.99Z"/><path class="cls-1" d="M35.99,80.71H0c2.43,33.97,26.37,61.79,57.94,69.29-12.52-12.2-21.03-37.83-21.95-69.29Z"/><path class="cls-1" d="M35.99,69.29c.92-31.47,9.43-57.09,21.95-69.29C26.37,7.5,2.43,35.33,0,69.29H35.99Z"/></svg>