<?xml version="1.0" encoding="UTF-8"?><svg id="ELEMENTS" xmlns="http://www.w3.org/2000/svg" viewBox="0 0 150 150"><defs><style>.cls-1{fill:#fff;}</style></defs><path class="cls-1" d="M128.34,16.08H21.66C9.71,16.08,0,25.8,0,37.74V112.26c0,11.94,9.71,21.66,21.66,21.66h106.69c11.94,0,21.66-9.72,21.66-21.66V37.74c0-11.94-9.71-21.66-21.66-21.66Zm0,10.35c.89,0,1.74,.11,2.57,.31l-45.01,51.07c-2.76,3.13-6.73,4.93-10.91,4.93s-8.15-1.8-10.91-4.93L19.09,26.74c.83-.19,1.69-.31,2.57-.31h106.69Zm11.3,85.83c0,6.23-5.07,11.3-11.3,11.3H21.66c-6.23,0-11.3-5.07-11.3-11.3V37.74c0-1.52,.3-2.96,.85-4.28l45.13,51.2c4.72,5.36,11.53,8.43,18.67,8.43s13.95-3.07,18.67-8.43l45.13-51.2c.54,1.32,.85,2.77,.85,4.28V112.26Z"/></svg>