<?xml version="1.0" encoding="UTF-8"?><svg id="ELEMENTS" xmlns="http://www.w3.org/2000/svg" viewBox="0 0 150 150"><defs><style>.cls-1{fill:#27adff;}</style></defs><path class="cls-1" d="M11.17,18.88l52.12,59.14c2.96,3.36,7.23,5.29,11.71,5.29s8.75-1.93,11.71-5.29l51.22-58.11c.42-.48,.92-.85,1.45-1.15-2.17-.95-4.57-1.49-7.09-1.49H17.7c-2.41,0-4.71,.49-6.8,1.36,.09,.09,.18,.16,.27,.25Z"/><path class="cls-1" d="M147.28,25.57c-.23,.6-.55,1.18-1,1.69l-51.22,58.11c-5.08,5.76-12.39,9.06-20.06,9.06s-14.98-3.3-20.05-9.06L2.82,26.24c-.11-.12-.18-.25-.27-.38-1.61,2.67-2.55,5.78-2.55,9.12V115.02c0,9.78,7.93,17.7,17.7,17.7h114.6c9.78,0,17.7-7.93,17.7-17.7V34.98c0-3.46-1.01-6.68-2.72-9.4Z"/></svg>