<?xml version="1.0" encoding="UTF-8"?><svg id="ELEMENTS" xmlns="http://www.w3.org/2000/svg" viewBox="0 0 150 150"><defs><style>.cls-1{fill:#fff;}</style></defs><path class="cls-1" d="M114.71,26.78c-4.86,0-8.79,3.94-8.79,8.79s3.94,8.79,8.79,8.79,8.79-3.94,8.79-8.79-3.94-8.79-8.79-8.79Z"/><path class="cls-1" d="M75.62,38.06c-20.37,0-36.94,16.57-36.94,36.94s16.57,36.94,36.94,36.94,36.94-16.57,36.94-36.94-16.57-36.94-36.94-36.94Zm0,60.6c-13.05,0-23.66-10.61-23.66-23.66s10.62-23.66,23.66-23.66,23.66,10.61,23.66,23.66-10.61,23.66-23.66,23.66Z"/><path class="cls-1" d="M104.94,150H45.06C20.21,150,0,129.79,0,104.94V45.06C0,20.21,20.21,0,45.06,0h59.89c24.84,0,45.06,20.21,45.06,45.06v59.89c0,24.84-20.21,45.06-45.06,45.06ZM45.06,14.11c-17.06,0-30.94,13.88-30.94,30.94v59.89c0,17.06,13.88,30.94,30.94,30.94h59.89c17.06,0,30.95-13.88,30.95-30.94V45.06c0-17.06-13.88-30.94-30.95-30.94H45.06Z"/></svg>