<?xml version="1.0" encoding="UTF-8"?><svg id="TEXT" xmlns="http://www.w3.org/2000/svg" viewBox="0 0 150 150"><defs><style>.cls-1{fill:#fff;}</style></defs><path class="cls-1" d="M75,0C33.58,0,0,33.58,0,75s33.58,75,75,75,75-33.58,75-75S116.42,0,75,0Zm-16.92,107.69h-14.53V61.03h14.53v46.66Zm-7.26-53.03c-4.66,0-8.43-3.77-8.43-8.42s3.77-8.4,8.43-8.4,8.4,3.77,8.4,8.4-3.76,8.42-8.4,8.42Zm61.59,53.03h-14.5v-22.69c0-5.41-.1-12.37-7.54-12.37s-8.7,5.89-8.7,11.98v23.08h-14.49V61.03h13.91v6.38h.19c1.94-3.67,6.67-7.54,13.73-7.54,14.69,0,17.4,9.66,17.4,22.23v25.59Z"/></svg>