<?xml version="1.0" encoding="UTF-8"?><svg id="ELEMENTS" xmlns="http://www.w3.org/2000/svg" viewBox="0 0 150 150"><defs><style>.cls-1{fill:red;}</style></defs><path class="cls-1" d="M75,37.83c-9.5,0-17.24,7.73-17.24,17.24s7.73,17.24,17.24,17.24,17.24-7.73,17.24-17.24-7.73-17.24-17.24-17.24Z"/><path class="cls-1" d="M75,0C43.05,0,17.15,25.9,17.15,57.85c0,27.24,42.06,76.52,54.45,90.45,1.81,2.04,4.98,2.04,6.8,0,12.39-13.93,54.45-63.21,54.45-90.45C132.84,25.9,106.95,0,75,0Zm0,83.67c-15.77,0-28.6-12.83-28.6-28.6s12.83-28.6,28.6-28.6,28.6,12.83,28.6,28.6-12.83,28.6-28.6,28.6Z"/></svg>