<?xml version="1.0" encoding="UTF-8"?><svg id="ELEMENTS" xmlns="http://www.w3.org/2000/svg" viewBox="0 0 150 150"><defs><style>.cls-1{fill:#fff;}</style></defs><path class="cls-1" d="M78.41,38.36c-19.27,0-34.94,15.67-34.94,34.93,0,6.37,1.77,12.63,5.11,18.12l.91,1.49-3.5,13.02,13.1-3.51,1.48,.88c5.42,3.23,11.59,4.94,17.84,4.94,19.26,0,34.93-15.67,34.93-34.94s-15.67-34.93-34.93-34.93Zm20.52,48.13c-1.3,3.16-4.53,5.18-7.81,5.8-3.12,.6-5.71-.4-8.6-1.36-2.59-.85-5.08-2.09-7.4-3.51-4.63-2.84-8.63-6.64-11.85-11.01-.99-1.34-1.9-2.72-2.74-4.16-1.11-1.9-2.1-3.89-2.61-6.03-.22-.89-.33-1.81-.34-2.73-.04-3.24,1.2-6.51,3.76-8.6,1.49-1.21,3.68-1.74,5.35-.8,1.81,1.03,2.75,3.61,3.59,5.42,.66,1.42,1.41,3.28,1.14,4.87-.28,1.59-1.53,2.93-2.54,4.11-.68,.8-.78,1.48-.21,2.34,3.32,5.53,7.93,9.55,13.94,11.94,.82,.33,1.46,.23,1.99-.43,1.04-1.28,2.06-3.79,3.66-4.44,2.09-.86,4.4,.33,6.17,1.39,1.65,.98,4.41,2.2,4.86,4.24,.21,.98,.02,2.02-.36,2.96Z"/><path class="cls-1" d="M75,0C33.58,0,0,33.57,0,75s33.58,75,75,75,75-33.58,75-75S116.42,0,75,0Zm3.41,116.37c-7.13,0-14.18-1.8-20.48-5.22l-23.45,6.29,6.25-23.33c-3.54-6.39-5.4-13.55-5.4-20.82,0-23.75,19.32-43.07,43.08-43.07s43.08,19.32,43.08,43.07-19.33,43.08-43.08,43.08Z"/></svg>