<?xml version="1.0" encoding="UTF-8"?><svg id="ELEMENTS" xmlns="http://www.w3.org/2000/svg" viewBox="0 0 150 150"><defs><style>.cls-1{fill:#fff;}</style></defs><path class="cls-1" d="M79.44,149.83h0c-1.45,0-2.83-.6-3.81-1.66-2.22-2.39-54.43-58.94-54.43-89.92S47.32,0,79.44,0s58.25,26.13,58.25,58.24-52.21,87.53-54.43,89.92c-.98,1.06-2.37,1.66-3.82,1.66Zm0-139.41c-26.37,0-47.82,21.45-47.82,47.82,0,20.56,31.6,60.37,47.82,78.62,16.22-18.25,47.83-58.06,47.83-78.62,0-26.37-21.46-47.82-47.83-47.82Z"/><path class="cls-1" d="M79.44,81.92c-14.46,0-26.22-11.76-26.22-26.22s11.76-26.22,26.22-26.22,26.22,11.76,26.22,26.22-11.76,26.22-26.22,26.22Zm0-42.03c-8.71,0-15.8,7.09-15.8,15.8s7.09,15.8,15.8,15.8,15.8-7.09,15.8-15.8-7.09-15.8-15.8-15.8Z"/></svg>