<?xml version="1.0" encoding="UTF-8"?><svg id="ELEMENTS" xmlns="http://www.w3.org/2000/svg" viewBox="0 0 150 150"><defs><style>.cls-1{fill:#fff;}</style></defs><path class="cls-1" d="M75,37.92c-9.5,0-17.24,7.73-17.24,17.24s7.73,17.24,17.24,17.24,17.24-7.73,17.24-17.24-7.73-17.24-17.24-17.24Z"/><path class="cls-1" d="M75,.09C43.05,.09,17.15,25.99,17.15,57.93c0,27.24,42.06,76.52,54.45,90.45,1.81,2.04,4.98,2.04,6.8,0,12.39-13.93,54.45-63.21,54.45-90.45C132.85,25.99,106.95,.09,75,.09Zm0,83.67c-15.77,0-28.6-12.83-28.6-28.6s12.83-28.6,28.6-28.6,28.6,12.83,28.6,28.6-12.83,28.6-28.6,28.6Z"/></svg>