<?xml version="1.0" encoding="UTF-8"?><svg id="ELEMENTS" xmlns="http://www.w3.org/2000/svg" viewBox="0 0 150 150"><defs><style>.cls-1{fill:#fff;}</style></defs><path class="cls-1" d="M75,0C33.58,0,0,33.57,0,75s33.58,75,75,75,75-33.58,75-75S116.42,0,75,0ZM36.78,36.49H113.23c1.68,0,3.28,.35,4.72,.99-.35,.19-.68,.44-.96,.76l-34.17,38.77c-1.98,2.24-4.83,3.53-7.82,3.53s-5.84-1.29-7.81-3.53L32.42,37.56c-.06-.06-.12-.11-.18-.17,1.4-.58,2.93-.9,4.54-.9ZM125.04,101.7c0,6.52-5.29,11.81-11.81,11.81H36.78c-6.53,0-11.81-5.29-11.81-11.81V48.29c0-2.22,.63-4.3,1.7-6.08,.06,.08,.11,.17,.18,.25l34.77,39.46c3.39,3.84,8.26,6.04,13.38,6.04s10-2.2,13.38-6.04l34.17-38.77c.3-.34,.52-.73,.67-1.13,1.14,1.82,1.82,3.97,1.82,6.27v53.41Z"/></svg>