<?xml version="1.0" encoding="UTF-8"?><svg id="ELEMENTS" xmlns="http://www.w3.org/2000/svg" viewBox="0 0 150 150"><defs><style>.cls-1{fill:#fff;}.cls-2{fill:#3cf;}</style></defs><circle class="cls-2" cx="75" cy="75" r="75"/><g><path class="cls-1" d="M56.42,78.72c.84,25.37,10.17,42.75,18.58,42.75s17.74-17.37,18.58-42.75H56.42Z"/><path class="cls-1" d="M75,28.53c-8.41,0-17.74,17.37-18.58,42.75h37.16c-.84-25.37-10.17-42.75-18.58-42.75Z"/><path class="cls-1" d="M101.03,71.28h24.01c-1.62-22.13-17.59-40.27-38.65-45.15,8.35,7.95,14.03,24.65,14.65,45.15Z"/><path class="cls-1" d="M101.03,78.72c-.62,20.51-6.29,37.2-14.65,45.15,21.06-4.89,37.03-23.02,38.65-45.15h-24.01Z"/><path class="cls-1" d="M48.97,78.72H24.96c1.62,22.13,17.59,40.27,38.65,45.15-8.35-7.95-14.03-24.65-14.65-45.15Z"/><path class="cls-1" d="M48.97,71.28c.62-20.51,6.29-37.2,14.65-45.15-21.06,4.89-37.03,23.02-38.65,45.15h24.01Z"/></g></svg>