<?xml version="1.0" encoding="UTF-8"?><svg id="ELEMENTS" xmlns="http://www.w3.org/2000/svg" viewBox="0 0 150 150"><defs><style>.cls-1,.cls-2{fill:#fff;}.cls-2{fill-rule:evenodd;}</style></defs><path class="cls-1" d="M.18,150l10.75-40.12C4.85,98.89,1.64,86.58,1.64,74.09,1.64,33.24,34.88,0,75.73,0s74.09,33.24,74.09,74.09-33.24,74.09-74.09,74.09c-12.26,0-24.37-3.1-35.22-8.98L.18,150Zm42.34-25.84l2.54,1.51c9.32,5.56,19.93,8.49,30.67,8.49,33.13,0,60.08-26.95,60.08-60.08S108.86,14,75.73,14,15.65,40.96,15.65,74.09c0,10.94,3.04,21.71,8.79,31.15l1.56,2.56-6,22.4,22.53-6.04Z"/><path class="cls-2" d="M103.29,84.39c-3.05-1.82-7.02-3.86-10.61-2.39-2.76,1.13-4.52,5.44-6.3,7.64-.92,1.13-2.01,1.31-3.42,.74-10.35-4.12-18.27-11.03-23.98-20.54-.97-1.48-.79-2.64,.37-4.02,1.73-2.03,3.89-4.34,4.36-7.07,.47-2.74-.82-5.93-1.95-8.37-1.45-3.11-3.06-7.55-6.18-9.32-2.87-1.62-6.64-.71-9.2,1.37-4.41,3.59-6.54,9.22-6.47,14.79,.02,1.58,.21,3.16,.58,4.69,.89,3.68,2.59,7.11,4.5,10.38,1.44,2.46,3.01,4.85,4.7,7.15,5.53,7.52,12.42,14.05,20.39,18.93,3.98,2.44,8.27,4.58,12.72,6.05,4.98,1.65,9.42,3.36,14.8,2.34,5.63-1.07,11.19-4.56,13.42-9.98,.66-1.61,.99-3.4,.62-5.09-.77-3.51-5.52-5.6-8.35-7.29Z"/></svg>