<?xml version="1.0" encoding="UTF-8"?><svg id="ELEMENTS" xmlns="http://www.w3.org/2000/svg" viewBox="0 0 150 150"><defs><style>.cls-1,.cls-2{fill:#fff;}.cls-2{fill-rule:evenodd;}.cls-3{fill:#00d95f;}</style></defs><circle class="cls-3" cx="75" cy="75" r="75" transform="translate(-23.5 114.34) rotate(-66.77)"/><path class="cls-1" d="M34.48,117.44l6.25-23.33c-3.54-6.39-5.4-13.55-5.4-20.81,0-23.75,19.33-43.08,43.08-43.08s43.08,19.33,43.08,43.08-19.33,43.08-43.08,43.08c-7.13,0-14.17-1.8-20.48-5.22l-23.45,6.28Zm24.62-15.03l1.48,.88c5.42,3.23,11.59,4.94,17.83,4.94,19.26,0,34.94-15.67,34.94-34.94s-15.67-34.94-34.94-34.94-34.94,15.67-34.94,34.94c0,6.36,1.77,12.62,5.11,18.11l.91,1.49-3.49,13.03,13.1-3.51Z"/><path class="cls-2" d="M94.43,79.29c-1.77-1.06-4.08-2.24-6.17-1.39-1.6,.66-2.63,3.16-3.66,4.45-.53,.66-1.17,.76-1.99,.43-6.02-2.4-10.63-6.41-13.94-11.95-.56-.86-.46-1.54,.22-2.34,1-1.18,2.26-2.52,2.53-4.11,.27-1.59-.47-3.45-1.13-4.87-.84-1.81-1.78-4.39-3.59-5.42-1.67-.94-3.86-.41-5.35,.8-2.56,2.09-3.8,5.36-3.76,8.6,0,.92,.12,1.84,.34,2.73,.52,2.14,1.51,4.14,2.62,6.03,.84,1.43,1.75,2.82,2.73,4.16,3.22,4.37,7.22,8.17,11.86,11.01,2.32,1.42,4.81,2.66,7.39,3.52,2.9,.96,5.48,1.95,8.61,1.36,3.28-.62,6.5-2.65,7.8-5.81,.38-.93,.58-1.98,.36-2.96-.45-2.04-3.21-3.25-4.86-4.24Z"/></svg>